<svg width="59" height="59" viewBox="0 0 59 59" fill="none" xmlns="http://www.w3.org/2000/svg">
<g clip-path="url(#clip0_518_709)">
<path d="M52.2696 20.9315C54.8178 20.6916 56.8187 18.5399 56.8187 15.9283C56.8187 13.1572 54.5653 10.9025 51.7956 10.9025H51.6174C51.4117 9.72855 50.889 8.69144 50.095 7.91091C49.0381 6.872 47.5378 6.34084 45.7557 6.371L45.3663 6.3782C40.0377 6.47453 38.9294 6.49479 30.1424 1.98894C24.5958 -0.856358 18.1908 -0.816296 13.4266 2.09427C10.0785 4.13923 8.0223 7.30503 7.66084 10.9021H7.32774C4.55806 10.9021 2.30469 13.1568 2.30469 15.9283C2.30469 18.5399 4.30554 20.6916 6.85375 20.9315L5.77838 45.4341C3.08657 50.1691 2.42532 53.7882 3.81264 56.1941C4.52025 57.4207 6.10202 58.8828 9.62252 58.8828H49.504C53.0245 58.8828 54.6067 57.4207 55.3139 56.1941C56.7007 53.7882 56.0381 50.1682 53.345 45.4337L52.2696 20.9315ZM4.60713 15.9283C4.60713 14.4266 5.82744 13.2049 7.32774 13.2049H24.9622C25.5978 13.2049 26.1132 12.6895 26.1132 12.0535C26.1132 11.4179 25.5978 10.9025 24.9622 10.9025H9.97948C10.3369 8.12337 11.9857 5.67239 14.6267 4.05911C18.7112 1.56402 24.2537 1.55591 29.0917 4.03795C38.3938 8.80758 39.8797 8.78012 45.4082 8.68019L45.7967 8.67299C46.9607 8.65273 47.8664 8.94892 48.4813 9.553C48.836 9.90141 49.0993 10.3682 49.2542 10.9021H34.1612C33.5256 10.9021 33.0102 11.4179 33.0102 12.0535C33.0102 12.6891 33.5256 13.2045 34.1612 13.2045H51.7956C53.2959 13.2045 54.5162 14.4266 54.5162 15.9283C54.5162 17.4299 53.2959 18.6516 51.7956 18.6516H7.32774C5.82744 18.652 4.60713 17.4304 4.60713 15.9283ZM53.3189 55.044C52.587 56.3139 50.8404 56.5803 49.504 56.5803H9.62252C8.28607 56.5803 6.53955 56.3139 5.80718 55.044C4.8637 53.4083 5.61138 50.3172 7.91246 46.3407C8.00564 46.18 8.05831 45.9995 8.06641 45.8145L9.15708 20.9545H49.9658L51.0569 45.8145C51.0651 45.9999 51.1177 46.1804 51.2104 46.3407C53.5133 50.3176 54.2624 53.4087 53.3189 55.044Z" fill="#FEAD04"/>
<path d="M37.0222 31.1641C36.2111 30.3521 34.9624 30.1608 33.4896 30.6132C33.5067 30.3818 33.517 30.1482 33.517 29.9128C33.517 26.512 31.7683 23.8477 29.5356 23.8477C27.3047 23.8477 25.5573 26.512 25.5573 29.9128C25.5573 30.1482 25.5677 30.3818 25.5848 30.6132C24.1119 30.1608 22.8628 30.3521 22.0521 31.1641C20.8777 32.3394 21.0312 34.4047 22.36 36.5707C22.252 36.6495 22.1484 36.7359 22.0521 36.8327C20.4726 38.4131 21.3585 41.6829 24.1128 44.4399C25.3926 45.717 26.8411 46.6447 28.2005 47.0588C28.2604 47.0831 28.322 47.1052 28.3841 47.1259V50.1693C28.3841 50.8048 28.8996 51.3202 29.5356 51.3202C30.1712 51.3202 30.6866 50.8048 30.6866 50.1693V47.1263C30.7496 47.1056 30.8117 47.0836 30.872 47.0584C32.2328 46.6443 33.6818 45.717 34.9624 44.439C37.7159 41.6829 38.6017 38.4131 37.0222 36.8327C36.9259 36.7359 36.8228 36.6495 36.7143 36.5707C38.0431 34.4042 38.1971 32.3394 37.0222 31.1641ZM35.3936 32.7914C35.6831 33.0808 35.5107 34.4375 34.2462 36.1021C33.9339 36.153 33.6093 36.234 33.2731 36.3501C32.421 36.6441 31.5346 37.1383 30.687 37.7843V35.2352C30.7996 35.1109 30.9193 34.9844 31.048 34.8539C31.5117 34.3902 32.0113 33.9784 32.5123 33.6408C32.5132 33.6403 32.5141 33.6399 32.5146 33.639C33.0277 33.2937 33.5427 33.0254 34.0243 32.8593C34.7585 32.6055 35.2487 32.6464 35.3936 32.7914ZM29.5356 26.1501C30.204 26.1501 31.2146 27.6508 31.2146 29.9128C31.2146 30.6384 31.1097 31.3347 30.9117 31.9496C30.4404 32.2913 29.9781 32.6806 29.5369 33.1096C29.0967 32.6806 28.6344 32.2913 28.1622 31.9492C27.9642 31.3343 27.8597 30.6379 27.8597 29.9128C27.8597 27.6508 28.8685 26.1501 29.5356 26.1501ZM23.6807 32.7914C23.8256 32.6464 24.3163 32.6055 25.0505 32.8593C25.5262 33.0236 26.0349 33.2874 26.5417 33.6264C26.5467 33.63 26.5517 33.6336 26.5571 33.6372C27.059 33.9748 27.5582 34.3857 28.0204 34.8476C28.146 34.975 28.2676 35.1042 28.3841 35.2343V37.782C27.5374 37.137 26.6525 36.6436 25.8013 36.3501C25.465 36.234 25.1405 36.153 24.8281 36.1021C23.5637 34.4375 23.3913 33.0808 23.6807 32.7914ZM25.7405 42.8114C23.6595 40.7286 23.3485 38.7921 23.6807 38.4599C23.8261 38.3145 24.3163 38.2736 25.0505 38.5265C26.0029 38.8551 27.0873 39.5821 28.0258 40.5215C28.1483 40.6435 28.2676 40.7709 28.3841 40.9005V44.6767C27.519 44.3085 26.5818 43.6509 25.7405 42.8114ZM33.3352 42.8105C32.4925 43.6513 31.5535 44.3094 30.687 44.6776V40.901C30.8014 40.775 30.922 40.6485 31.0485 40.5215C31.987 39.5821 33.0714 38.8551 34.0239 38.5265C34.758 38.2736 35.2487 38.3145 35.3936 38.4599C35.7258 38.7921 35.4148 40.7286 33.3352 42.8105Z" fill="#FEAD04"/>
<path d="M29.5616 13.2048H29.5846C30.2202 13.2048 30.7356 12.6894 30.7356 12.0533C30.7356 11.4177 30.2202 10.9023 29.5846 10.9023H29.5616C28.9256 10.9023 28.4106 11.4177 28.4106 12.0533C28.4106 12.6894 28.9256 13.2048 29.5616 13.2048Z" fill="#FEAD04"/>
</g>
<defs>
<clipPath id="clip0_518_709">
<rect width="59" height="59" fill="white"/>
</clipPath>
</defs>
</svg>
