<svg width="50" height="64" viewBox="0 0 50 64" fill="none" xmlns="http://www.w3.org/2000/svg">
<path d="M48.6204 21.4163C48.1988 20.6246 47.3798 20.1328 46.4829 20.1328H39.6036C39.0292 16.9026 36.2024 14.4414 32.8097 14.4414C29.417 14.4414 26.5902 16.9026 26.0159 20.1328H19.0463C19.5929 19.2963 19.9121 18.2982 19.9121 17.2266C19.9121 14.2886 17.522 11.8984 14.584 11.8984C11.646 11.8984 9.25589 14.2886 9.25589 17.2266C9.25589 18.2982 9.57509 19.2963 10.1217 20.1328H4.43926C3.54232 20.1328 2.72336 20.6246 2.30172 21.4163C1.88019 22.2079 1.92911 23.162 2.42959 23.9062L18.6799 48.0712V61.7891C18.6799 62.1974 18.8856 62.5782 19.2272 62.8019C19.4274 62.933 19.6586 63 19.8909 63C20.0549 63 20.2195 62.9667 20.3744 62.8993L31.515 58.0479C31.9567 57.8555 32.2424 57.4195 32.2424 56.9377V48.0711L48.4926 23.9061C48.993 23.162 49.0421 22.2079 48.6204 21.4163ZM32.8097 16.8633C34.8607 16.8633 36.5928 18.249 37.1226 20.1328H28.497C29.0266 18.249 30.7589 16.8633 32.8097 16.8633ZM14.5841 14.3203C16.1866 14.3203 17.4904 15.6241 17.4904 17.2266C17.4904 18.829 16.1866 20.1328 14.5841 20.1328C12.9817 20.1328 11.6779 18.829 11.6779 17.2266C11.6779 15.6241 12.9817 14.3203 14.5841 14.3203ZM30.0265 47.026C29.8922 47.2257 29.8204 47.461 29.8204 47.7017V56.1443L21.1016 59.9409V48.9127H25.4764C26.1452 48.9127 26.6873 48.3705 26.6873 47.7017C26.6873 47.0329 26.1452 46.4908 25.4764 46.4908H20.5357L8.34841 28.3672H32.8097C33.4785 28.3672 34.0206 27.8251 34.0206 27.1562C34.0206 26.4874 33.4785 25.9453 32.8097 25.9453H6.71982L4.43975 22.5547H46.4828L30.0265 47.026Z" fill="#FEAD04" stroke="#FEAD04" stroke-width="0.5"/>
<path d="M29.5936 1C26.6557 1 24.2655 3.39015 24.2655 6.32812C24.2655 9.2661 26.6558 11.6562 29.5936 11.6562C32.5316 11.6562 34.9218 9.2661 34.9218 6.32812C34.9218 3.39015 32.5316 1 29.5936 1ZM29.5936 9.23438C27.9912 9.23438 26.6874 7.93056 26.6874 6.32812C26.6874 4.72569 27.9912 3.42188 29.5936 3.42188C31.1961 3.42188 32.4999 4.72569 32.4999 6.32812C32.4999 7.93056 31.1961 9.23438 29.5936 9.23438Z" fill="#FEAD04" stroke="#FEAD04" stroke-width="0.5"/>
<path d="M42.5352 6.85156C41.8664 6.85156 41.3242 7.3937 41.3242 8.0625V14.9447C41.3242 15.6137 41.8664 16.1558 42.5352 16.1558C43.204 16.1558 43.7461 15.6137 43.7461 14.9449V8.0625C43.7461 7.3937 43.204 6.85156 42.5352 6.85156Z" fill="#FEAD04" stroke="#FEAD04" stroke-width="0.5"/>
<path d="M43.3913 3.2298C43.1661 3.00457 42.8536 2.875 42.5352 2.875C42.2167 2.875 41.9043 3.00457 41.679 3.2298C41.4538 3.45504 41.3242 3.76746 41.3242 4.08594C41.3242 4.40441 41.4538 4.71684 41.679 4.94207C41.9043 5.1673 42.2167 5.29688 42.5352 5.29688C42.8536 5.29688 43.1661 5.1673 43.3913 4.94207C43.6165 4.71684 43.7461 4.40441 43.7461 4.08594C43.7461 3.76746 43.6165 3.45504 43.3913 3.2298Z" fill="#FEAD04" stroke="#FEAD04" stroke-width="0.5"/>
<path d="M18.7013 2.54688C18.0325 2.54688 17.4904 3.08901 17.4904 3.75781V8.72265C17.4904 9.39145 18.0325 9.93359 18.7013 9.93359C19.3701 9.93359 19.9122 9.39145 19.9122 8.72265V3.75781C19.9122 3.08901 19.3701 2.54688 18.7013 2.54688Z" fill="#FEAD04" stroke="#FEAD04" stroke-width="0.5"/>
<path d="M2.21094 1C1.54214 1 1 1.54214 1 2.21094V10.1024C1 10.7712 1.54214 11.3133 2.21094 11.3133C2.87974 11.3133 3.42188 10.7712 3.42188 10.1024V2.21094C3.42188 1.54214 2.87974 1 2.21094 1Z" fill="#FEAD04" stroke="#FEAD04" stroke-width="0.5"/>
<path d="M3.06707 13.7884C2.84184 13.562 2.52941 13.4336 2.21094 13.4336C1.89246 13.4336 1.58004 13.562 1.3548 13.7884C1.12957 14.0136 1 14.3248 1 14.6445C1 14.963 1.12957 15.2754 1.3548 15.5007C1.58004 15.7259 1.89246 15.8555 2.21094 15.8555C2.52941 15.8555 2.84184 15.7259 3.06707 15.5007C3.29231 15.2754 3.42188 14.963 3.42188 14.6445C3.42188 14.3248 3.29231 14.0136 3.06707 13.7884Z" fill="#FEAD04" stroke="#FEAD04" stroke-width="0.5"/>
<path d="M39.0502 26.3001C38.825 26.0749 38.5126 25.9453 38.1941 25.9453C37.8744 25.9453 37.562 26.0749 37.338 26.3001C37.1115 26.5254 36.9832 26.8378 36.9832 27.1562C36.9832 27.4747 37.1115 27.7871 37.338 28.0124C37.5632 28.2376 37.8744 28.3672 38.1941 28.3672C38.5126 28.3672 38.8238 28.2376 39.0502 28.0124C39.2755 27.7871 39.405 27.4747 39.405 27.1562C39.405 26.8378 39.2755 26.5254 39.0502 26.3001Z" fill="#FEAD04" stroke="#FEAD04" stroke-width="0.5"/>
</svg>
