<svg width="45" height="66" viewBox="0 0 45 66" fill="none" xmlns="http://www.w3.org/2000/svg">
<path d="M43.7976 61.7738C39.6623 54.6749 39.6133 24.7678 39.6133 24.4668V23.9783C39.8818 23.9151 40.1501 23.8562 40.419 23.7887C41.8338 23.4289 42.8214 22.1516 42.8133 20.6918V15.3949C42.83 14.0081 41.9301 12.7764 40.6039 12.3709C40.1336 9.40114 37.5024 7.26216 34.4993 7.40841C32.9544 4.73142 29.7202 3.53668 26.8061 4.5668C24.622 1.86206 21.1455 0.550446 17.719 1.13844C14.2925 1.72644 11.4522 4.12205 10.2948 7.40028H10.2802C7.3922 7.41366 4.93997 9.51914 4.48985 12.3719C3.1631 12.7764 2.26286 14.0081 2.28023 15.395V20.6918C2.27223 22.1517 3.2601 23.4292 4.67497 23.7887C4.94347 23.8562 5.21172 23.9151 5.48022 23.9783V24.4668C5.48022 24.7678 5.43234 54.6729 1.29637 61.7728C0.905868 62.4407 0.900992 63.266 1.28337 63.9384C1.65949 64.5996 2.36386 65.0057 3.12448 64.9999H41.969C42.7296 65.0057 43.434 64.5997 43.8101 63.9384C44.1925 63.2663 44.1877 62.4415 43.7976 61.7738ZM10.2802 9.53352C10.4859 9.53289 10.6913 9.54927 10.8942 9.58252C11.4442 9.67639 11.9731 9.32877 12.1052 8.78665C12.8212 5.91741 15.1645 3.74218 18.079 3.2413C20.9935 2.74043 23.9286 4.00855 25.5614 6.47416C25.8633 6.93303 26.4651 7.08653 26.9498 6.82828C28.0113 6.26754 29.2598 6.17916 30.3897 6.58479C31.5196 6.99041 32.4268 7.85265 32.8893 8.96052C33.0796 9.42139 33.5642 9.68852 34.0554 9.60327C34.3055 9.55852 34.5592 9.53527 34.8133 9.53352C36.528 9.54277 38.0175 10.7151 38.4293 12.3798L37.8784 12.5023C27.7783 14.7251 17.3156 14.7251 7.21558 12.5023L6.66421 12.3796C7.07596 10.715 8.56545 9.54264 10.2802 9.53352ZM5.19322 21.7198C4.72834 21.5964 4.40697 21.1727 4.41347 20.6917V15.3949C4.41335 15.0711 4.56047 14.7647 4.81322 14.5624C5.06597 14.36 5.39697 14.2834 5.71297 14.3542L6.75358 14.5855C17.158 16.8751 27.936 16.8751 38.3404 14.5855L39.381 14.3542C39.6969 14.2835 40.0278 14.3601 40.2804 14.5625C40.533 14.7649 40.68 15.0711 40.6799 15.3949V20.6917C40.6865 21.1725 40.3654 21.5962 39.9008 21.7198C39.3731 21.8511 38.845 21.9751 38.3164 22.0917L38.312 22.0937L38.307 22.0938C27.9338 24.4647 17.1595 24.4647 6.78633 22.0938L6.78146 22.0937L6.77708 22.0917C6.24896 21.9751 5.72096 21.8511 5.19322 21.7198ZM3.1396 62.8467C7.56245 55.254 7.61358 25.7198 7.61358 24.4667V24.4614C8.11933 24.5681 8.6322 24.6458 9.14094 24.7414C9.69282 24.8454 10.2429 24.9541 10.7977 25.0452C11.5146 25.1626 12.2353 25.2565 12.9564 25.352C13.5539 25.4315 14.1494 25.5197 14.7493 25.5843C15.3843 25.6523 16.0217 25.695 16.6588 25.7463C17.3456 25.802 18.031 25.8692 18.72 25.9054C19.1236 25.9264 19.5281 25.9253 19.9321 25.9397C20.8034 25.971 21.674 26.0135 22.5469 26.0135C23.4197 26.0135 24.2902 25.971 25.1616 25.9397C25.5656 25.9253 25.9701 25.9264 26.3737 25.9054C27.0625 25.8692 27.7477 25.802 28.4345 25.7463C29.0717 25.6949 29.7093 25.6523 30.3444 25.5843C30.9442 25.5197 31.5396 25.4315 32.1369 25.352C32.8582 25.2564 33.5789 25.1626 34.2959 25.0452C34.8507 24.9541 35.4008 24.8454 35.9527 24.7414C36.4613 24.6458 36.9742 24.5681 37.48 24.4614V24.4667C37.48 25.7198 37.5312 55.254 41.954 62.8467L41.9691 62.8665L3.1396 62.8467Z" fill="#FEAD04" stroke="#FEAD04" stroke-width="0.5"/>
<path d="M16.4561 7.08961C16.5597 7.18374 16.6786 7.25949 16.8077 7.31361C17.0661 7.42749 17.3603 7.42749 17.6186 7.31361C17.7478 7.25949 17.867 7.18374 17.9707 7.08961C18.0646 6.98562 18.1403 6.86662 18.1947 6.73749C18.2493 6.60924 18.2783 6.47162 18.2801 6.33224C18.2801 5.74312 17.8026 5.26562 17.2135 5.26562C16.6243 5.26562 16.1469 5.74312 16.1469 6.33224C16.1484 6.47162 16.1772 6.60924 16.2317 6.73749C16.286 6.86674 16.3618 6.98586 16.4561 7.08961Z" fill="#FEAD04" stroke="#FEAD04" stroke-width="0.5"/>
<path d="M14.3228 12.4226C14.4264 12.5167 14.5453 12.5925 14.6744 12.6466C15.0714 12.8168 15.5322 12.7281 15.8375 12.4226C15.9314 12.3186 16.0072 12.1996 16.0615 12.0705C16.1213 11.944 16.1505 11.8051 16.1469 11.6652C16.1428 11.3829 16.0323 11.1125 15.8375 10.9079C15.7338 10.8137 15.6147 10.738 15.4854 10.6839C15.2909 10.5984 15.0747 10.5757 14.8667 10.6192C14.7998 10.6312 14.735 10.653 14.6744 10.6839C14.6065 10.707 14.542 10.7392 14.4828 10.7797C14.4292 10.8224 14.376 10.8651 14.3229 10.9079C14.1279 11.1122 14.0174 11.3827 14.0135 11.6652C14.015 11.8046 14.0439 11.9422 14.0984 12.0705C14.1527 12.1997 14.2287 12.3187 14.3228 12.4226Z" fill="#FEAD04" stroke="#FEAD04" stroke-width="0.5"/>
<path d="M20.7228 9.22424C21.1434 9.63674 21.8168 9.63674 22.2374 9.22424C22.3313 9.12024 22.407 9.00124 22.4614 8.87211C22.5211 8.74562 22.5505 8.60674 22.5468 8.46687C22.5426 8.18449 22.4321 7.91412 22.2374 7.70949C22.1336 7.61537 22.0145 7.53962 21.8853 7.4855C21.488 7.31887 21.0295 7.40725 20.7226 7.70949C20.5278 7.91387 20.4173 8.18437 20.4133 8.46687C20.4148 8.60624 20.4436 8.74387 20.4981 8.87211C20.5526 9.00136 20.6286 9.12036 20.7228 9.22424Z" fill="#FEAD04" stroke="#FEAD04" stroke-width="0.5"/>
<path d="M24.6802 12.7318C24.8196 12.7301 24.9572 12.7011 25.0854 12.6465C25.2147 12.5923 25.3338 12.5166 25.4376 12.4225C25.5314 12.3185 25.6072 12.1995 25.6616 12.0704C25.7162 11.9422 25.7452 11.8045 25.7469 11.6652C25.7428 11.3829 25.6323 11.1125 25.4376 10.9079C25.3839 10.8652 25.3308 10.8225 25.2777 10.7797C25.2183 10.7392 25.1537 10.707 25.0854 10.6839C25.0248 10.6531 24.9601 10.6314 24.8932 10.6192C24.6852 10.5757 24.4689 10.5984 24.2744 10.6839C24.1453 10.738 24.0265 10.8137 23.9228 10.9079C23.7261 11.111 23.6152 11.3824 23.6135 11.6651C23.6107 11.9489 23.7222 12.2217 23.9228 12.4223C24.1235 12.6231 24.3964 12.7346 24.6802 12.7318Z" fill="#FEAD04" stroke="#FEAD04" stroke-width="0.5"/>
<path d="M28.9467 10.6017C29.2295 10.5995 29.5006 10.4887 29.7041 10.2923C29.798 10.1883 29.8737 10.0693 29.9281 9.94021C29.9879 9.81371 30.0171 9.67484 30.0135 9.53496C30.0094 9.25259 29.8989 8.98222 29.7041 8.77759C29.2791 8.37622 28.6146 8.37622 28.1895 8.77759C27.9945 8.98197 27.884 9.25246 27.8801 9.53496C27.8772 9.81871 27.9887 10.0917 28.1895 10.2923C28.3929 10.4887 28.664 10.5995 28.9467 10.6017Z" fill="#FEAD04" stroke="#FEAD04" stroke-width="0.5"/>
<path d="M10.854 46.8684C10.5713 46.8551 10.2949 46.955 10.0859 47.146C9.87688 47.337 9.75263 47.6032 9.74051 47.8861C9.67276 49.3996 9.58426 50.8216 9.47801 52.1121C9.42976 52.6992 9.86638 53.2144 10.4535 53.2631C10.4831 53.2652 10.5129 53.2662 10.542 53.2662C11.0967 53.2656 11.5584 52.8398 11.604 52.287C11.7124 50.9703 11.8024 49.5213 11.8717 47.9817C11.8845 47.6991 11.7845 47.423 11.5936 47.2141C11.4027 47.0052 11.1367 46.881 10.854 46.8684Z" fill="#FEAD04" stroke="#FEAD04" stroke-width="0.5"/>
<path d="M11.5375 29.0141C11.329 28.8224 11.0522 28.722 10.7692 28.7356C10.4865 28.7474 10.2201 28.871 10.0285 29.0792C9.83698 29.2875 9.73598 29.5633 9.74786 29.846C9.75048 29.9106 10.0182 36.4543 9.87498 43.6469C9.86348 44.2358 10.3314 44.7226 10.9202 44.7344H10.9421C11.5228 44.734 11.9967 44.2693 12.0082 43.6885C12.1525 36.4313 11.8822 29.823 11.8791 29.7563C11.8691 29.4732 11.7461 29.206 11.5375 29.0141Z" fill="#FEAD04" stroke="#FEAD04" stroke-width="0.5"/>
</svg>
